<?xml version="1.0" encoding="UTF-8" standalone="no"?>
<!-- Created with Inkscape (http://www.inkscape.org/) -->

<svg
   width="1500"
   height="1500"
   viewBox="0 0 396.87499 396.875"
   version="1.1"
   id="svg1"
   xml:space="preserve"
   xmlns="http://www.w3.org/2000/svg"
   xmlns:svg="http://www.w3.org/2000/svg"><defs
     id="defs1" /><g
     id="layer1"
     transform="translate(-406.87501)"><path
       d="m 795.52875,301.10739 c -0.0749,-0.21542 -0.55414,-1.6607 -1.06508,-3.21176 -7.16697,-21.75644 -24.88004,-39.81104 -46.56381,-47.4616 -5.91606,-2.08733 -12.43302,-4.16473 -19.74055,-6.29266 -1.20636,-0.35129 -2.82792,-0.83551 -3.60343,-1.07603 -1.45548,-0.45141 -6.8935,-1.8444 -12.37701,-3.17048 -1.72339,-0.41676 -3.83844,-0.95665 -4.70014,-1.19976 -0.86168,-0.2431 -2.83574,-0.73883 -4.38679,-1.10161 -1.55103,-0.36277 -4.01861,-0.94691 -5.48349,-1.29808 -4.00655,-0.9605 -6.09188,-1.42988 -9.7136,-2.18646 -7.32645,-1.53047 -7.19962,-1.4296 -5.3655,-4.26735 9.01097,-13.94172 21.24169,-24.6381 39.48848,-34.53467 3.7154,-2.01515 4.04086,-1.97131 11.54746,1.55543 1.07758,0.50627 2.03524,0.92048 2.12814,0.92048 0.22226,0 3.63471,1.57477 7.34964,3.39168 37.67801,18.42775 57.26345,50.37294 54.91624,89.57218 -0.47238,7.88904 -1.60773,12.72864 -2.43056,10.36069 z M 555.35117,289.27383 c -5.77562,-0.48535 -13.33568,-2.12937 -20.68058,-4.49724 -18.97818,-6.11821 -38.89976,-23.06529 -45.53844,-38.73907 -2.41589,-5.70384 -2.98973,-7.39292 -4.20497,-12.37702 l -0.84041,-3.44675 -0.007,-7.83356 -0.007,-7.83354 1.02164,-3.76011 c 0.56189,-2.06806 1.425,-4.62281 1.91804,-5.67722 l 0.89641,-1.9171 4.5009,-2.66436 c 2.47551,-1.46541 5.48793,-3.20295 6.69431,-3.8612 1.20635,-0.65824 3.36778,-1.87491 4.80317,-2.70372 1.43537,-0.8288 2.65654,-1.50691 2.71368,-1.50691 0.0572,0 1.10852,-0.56927 2.33636,-1.26506 2.80411,-1.58899 2.70268,-1.68901 2.93971,2.89884 0.42219,8.17201 1.73474,13.54106 4.9244,20.1435 8.14983,16.8697 26.07476,28.04411 44.98574,28.04411 6.77349,0 10.85342,-0.8303 18.39579,-3.7437 2.41895,-0.93436 2.41927,-0.93203 0.45622,3.3329 -7.34672,15.96152 -7.10004,28.89371 0.80475,42.18952 1.73675,2.92118 1.73299,2.89294 0.4408,3.30652 -4.76665,1.52558 -18.97543,2.54816 -26.55574,1.91117 z m 38.70928,-7.95159 c -5.14913,-5.45964 -7.71643,-14.7436 -6.45766,-23.35235 0.46815,-3.20173 0.84043,-4.05693 1.87804,-4.31411 0.44439,-0.11016 1.7245,-0.6117 2.8447,-1.11458 1.1202,-0.50289 2.53024,-1.09342 3.13342,-1.3123 0.60318,-0.21889 2.64774,-0.97297 4.54346,-1.67574 7.88452,-2.92292 18.14759,-5.87944 26.79075,-7.71771 10.03849,-2.13505 24.90666,-3.33938 33.91071,-2.74681 6.98791,0.4599 7.14526,0.50672 7.79374,2.31927 2.02157,5.65043 6.24042,12.10855 12.28025,18.79828 3.12705,3.46353 3.21623,3.37664 -3.47679,3.38741 -10.54916,0.0169 -24.28151,1.53449 -35.31082,3.90204 -2.06806,0.44394 -4.39462,0.93585 -5.17016,1.09317 -9.84155,1.99622 -25.00979,7.04818 -36.64685,12.20565 -4.26698,1.89109 -4.78487,1.93582 -6.11279,0.52778 z m 177.34006,-0.6822 c -1.37871,-0.23955 -3.77576,-0.65054 -5.32681,-0.9133 -8.18319,-1.38639 -15.50109,-2.7724 -20.05389,-3.79821 -3.01842,-0.68012 -13.09404,-3.1685 -15.19709,-3.75325 -0.94786,-0.26356 -2.71042,-0.75123 -3.91677,-1.08372 -19.99176,-5.50992 -28.36056,-9.38375 -36.10111,-16.71081 -5.44458,-5.15375 -10.9284,-13.30933 -8.47181,-12.59935 0.38776,0.11207 1.43263,0.33057 2.32194,0.48555 0.88931,0.15499 2.15834,0.42408 2.82008,0.59797 0.66174,0.17391 2.61319,0.62031 4.33658,0.99202 1.72339,0.37171 4.26146,0.95639 5.64017,1.29933 1.37869,0.34292 3.28225,0.81172 4.2301,1.04176 0.94786,0.23005 2.63992,0.65982 3.76011,0.95506 1.12021,0.29524 2.60074,0.64281 3.2901,0.77237 0.68934,0.12957 2.38139,0.54157 3.7601,0.91558 1.37871,0.37399 3.49376,0.93941 4.70014,1.25647 1.20635,0.31709 4.94296,1.38633 8.30356,2.37613 3.36059,0.98978 6.74468,1.97794 7.5202,2.19588 1.76093,0.49486 6.84731,2.18203 8.93025,2.9622 6.61652,2.47821 8.67518,3.33675 11.97735,4.99502 7.29501,3.66341 13.65334,8.69223 19.54485,15.45805 2.77578,3.18775 2.6274,3.37109 -2.06805,2.55525 z M 593.26556,242.12373 c 0,-1.35697 6.92745,-10.90878 12.38737,-17.08013 13.1255,-14.83574 33.6489,-29.50052 49.29788,-35.22528 0.62691,-0.22934 2.54986,-0.94726 4.27324,-1.59539 4.3378,-1.63138 9.36119,-3.04099 15.51045,-4.35243 9.87057,-2.10503 27.18008,-2.23801 36.50434,-0.28041 1.20636,0.25327 2.8221,0.59042 3.59052,0.74921 2.26626,0.4683 2.11135,0.69848 -2.08974,3.10529 -14.55555,8.33889 -26.97585,19.06191 -36.65452,31.64552 -3.06766,3.98838 -6.18712,8.58066 -6.64275,9.77907 -0.16254,0.42752 -0.5136,0.99537 -0.78013,1.26189 l -0.48459,0.4846 -9.17692,-0.16314 c -13.51349,-0.24026 -26.86917,1.07353 -37.53437,3.6922 -7.21885,1.77246 -8.95276,2.22526 -12.37701,3.23212 -5.20175,1.52952 -6.93156,2.10042 -11.41281,3.7666 -4.35419,1.61893 -4.41096,1.63155 -4.41096,0.98028 z m 76.9774,-34.73468 c 5.15633,-1.78512 12.30744,-6.34343 19.95897,-12.72236 12.34557,-10.29227 -4.96804,-12.4826 -21.14031,-2.67444 -13.57706,8.23422 -12.65984,20.1886 1.18134,15.3968 z m -112.07172,22.65639 c -15.74716,-1.01221 -29.62051,-13.08597 -33.60583,-29.24666 l -0.70513,-2.85926 0.0335,-6.11017 c 0.023,-4.17356 0.17188,-6.60439 0.47001,-7.66946 l 0.43649,-1.55927 1.88005,-1.27347 c 1.89611,-1.28433 10.35601,-6.2423 14.41374,-8.44725 1.20635,-0.65553 2.40488,-1.36653 2.66341,-1.58 0.2585,-0.21348 1.10452,-0.72654 1.88004,-1.14014 1.46076,-0.77904 5.28774,-3.00203 10.96698,-6.37043 1.80955,-1.07324 4.04289,-2.35925 4.96299,-2.85778 3.82703,-2.07357 9.40024,-5.42803 9.62646,-5.79404 0.30861,-0.49935 2.42546,-0.30207 4.20501,0.39187 35.8342,13.9736 32.51177,64.0258 -4.89676,73.7695 -2.91293,0.75872 -7.66544,1.04645 -12.33101,0.74656 z m 8.2098,-16.94682 c 17.35697,-3.67242 23.1853,-25.8148 9.74022,-37.00399 -13.67501,-11.38052 -34.87023,-1.31924 -34.87044,16.55284 -1.7e-4,13.09163 12.36263,23.15254 25.13022,20.45115 z M 475.7623,196.65059 c -1.95924,-0.85941 -4.39278,-1.68294 -10.02696,-3.3932 -1.33875,-0.40638 -4.49521,-1.13208 -9.7136,-2.23327 -9.90549,-2.09023 -28.1558,-1.64166 -40.10778,0.98581 -5.4644,1.20127 -4.52118,0.0411 3.60343,-4.4321 0.34468,-0.18977 5.42083,-3.0899 11.28032,-6.44473 5.8595,-3.35484 11.49965,-6.56692 12.53369,-7.13798 1.03402,-0.57106 4.91163,-2.83208 8.61689,-5.02448 3.70528,-2.19243 8.0764,-4.73843 9.7136,-5.65778 4.77299,-2.68022 19.50986,-11.15126 24.28401,-13.95892 4.12558,-2.42624 5.60225,-3.27475 11.65043,-6.69451 5.45624,-3.08504 18.24104,-10.50763 20.06777,-11.65093 1.07288,-0.67149 2.02193,-1.22087 2.10897,-1.22087 0.0871,0 0.92977,-0.49353 1.87269,-1.09671 0.94292,-0.60318 1.7952,-1.09671 1.89393,-1.09671 0.0986,0 3.66586,-2.02439 7.92694,-4.49864 4.26108,-2.47427 13.52858,-7.85322 20.59444,-11.95323 7.06587,-4.1 13.19953,-7.6956 13.63039,-7.99023 0.43084,-0.29462 1.48837,-0.92782 2.35005,-1.40711 3.16189,-1.758671 5.39688,-3.054039 8.4113,-4.875039 3.72329,-2.249244 3.23297,-2.235944 6.82396,-0.184947 3.37467,1.927423 16.80007,9.807586 18.06969,10.606176 0.46713,0.29383 2.15557,1.28085 3.75208,2.1934 5.88297,3.36265 19.98579,11.65499 20.44125,12.01929 0.2585,0.20678 3.71311,2.27937 7.67688,4.60576 7.4167,4.35296 22.21627,13.07391 23.72204,13.97869 3.3728,2.02663 8.30751,4.97754 8.98701,5.37415 0.4502,0.26278 1.17105,0.70074 1.6019,0.97325 0.43085,0.2725 3.25092,1.94557 6.26685,3.71789 3.01591,1.77234 5.977,3.52345 6.58018,3.89135 0.60317,0.36791 1.3787,0.83167 1.72338,1.03058 5.43307,3.13555 14.14445,8.26149 15.35377,9.03446 0.86168,0.55077 3.66859,2.23609 6.23756,3.74516 5.52557,3.24584 5.49299,3.36697 -0.75408,2.80267 -10.02607,-0.90563 -24.88365,0.10334 -33.37094,2.26613 -7.69172,1.9601 -14.75965,4.17798 -18.38553,5.76924 -2.70086,1.18531 -1.89498,1.54371 -17.33546,-7.70937 -8.93337,-5.35353 -36.09903,-21.51185 -43.08453,-25.62698 -2.32657,-1.37056 -4.86464,-2.8767 -5.64016,-3.34696 -6.02517,-3.65349 -3.22869,-4.48887 -22.87397,6.8332 -4.04994,2.33408 -8.49157,4.87503 -9.87028,5.64655 -2.2176,1.24094 -10.18959,5.86579 -11.43698,6.63503 -0.2585,0.1594 -1.79615,1.03474 -3.41695,1.9452 -1.62083,0.91046 -3.31287,1.87041 -3.76011,2.13324 -2.10666,1.23798 -4.35686,2.53731 -13.97353,8.06881 -9.3695,5.38935 -13.23391,7.5751 -17.8605,10.10222 -3.58795,1.9598 -16.35369,9.20759 -17.07713,9.69562 -1.67203,1.12791 -7.1658,4.08576 -7.56711,4.07413 -0.23271,-0.007 -0.91663,-0.22875 -1.5198,-0.49331 z m 139.59387,-1.37626 -2.82007,-1.51977 -0.19466,-2.92099 c -0.25636,-3.84714 -1.13724,-10.00639 -1.73976,-12.16459 -1.04142,-3.73034 -2.12106,-6.83775 -3.12491,-8.9941 -1.71629,-3.68666 -1.77295,-3.68222 3.84952,-0.30096 2.38878,1.43656 8.57334,5.11694 13.74349,8.17863 11.56878,6.85087 13.65705,8.32329 11.80445,8.32329 -0.78291,0 -11.61772,6.63901 -14.87103,9.11217 -2.9213,2.22078 -3.0474,2.22622 -6.64703,0.28632 z"
       style="fill:#f37703;fill-opacity:1;stroke-width:1.27347"
       id="path1-6" /></g></svg>
